<?xml version="1.0" standalone="no"?>
<!DOCTYPE svg PUBLIC "-//W3C//DTD SVG 20010904//EN"
 "http://www.w3.org/TR/2001/REC-SVG-20010904/DTD/svg10.dtd">
<svg version="1.0" xmlns="http://www.w3.org/2000/svg"
 width="1024.000000pt" height="1024.000000pt" viewBox="0 0 1024.000000 1024.000000"
 preserveAspectRatio="xMidYMid meet">
<metadata>
Created by potrace 1.11, written by Peter Selinger 2001-2013
</metadata>
<g transform="translate(0.000000,1024.000000) scale(0.100000,-0.100000)"
fill="#000000" stroke="none">
<path d="M2759 10236 c-2 -2 -85 -7 -184 -10 -99 -4 -202 -9 -230 -11 -102 -8
-201 -17 -230 -20 -16 -2 -57 -6 -90 -10 -113 -12 -357 -65 -480 -105 -435
-142 -871 -488 -1153 -915 -197 -297 -306 -624 -346 -1035 -3 -25 -7 -72 -11
-105 -27 -274 -30 -567 -30 -2900 0 -2065 4 -2669 19 -2765 2 -14 7 -68 11
-120 3 -52 8 -108 10 -125 2 -16 6 -55 10 -85 3 -30 10 -80 15 -110 5 -30 12
-69 15 -87 11 -67 65 -262 96 -348 114 -315 361 -663 643 -904 314 -269 641
-429 1011 -496 88 -15 226 -36 270 -39 28 -3 77 -7 110 -10 107 -11 177 -15
365 -23 236 -10 4858 -11 5085 0 273 12 489 31 645 57 30 5 71 11 90 14 70 11
238 56 340 91 374 130 781 445 1047 810 199 273 334 600 379 915 4 30 8 57 9
60 4 16 16 112 19 150 3 25 7 74 11 110 8 92 13 170 22 375 11 238 10 4803 0
5060 -9 224 -12 269 -32 475 -5 45 -20 153 -40 275 -2 11 -9 43 -15 70 -6 28
-13 58 -16 69 -10 53 -52 183 -82 261 -5 11 -35 73 -67 139 -156 316 -421 627
-710 835 -38 27 -75 55 -82 61 -7 5 -17 10 -23 10 -5 0 -10 5 -10 10 0 6 -4
10 -10 10 -5 0 -40 19 -77 42 -177 108 -467 215 -663 243 -24 4 -47 8 -50 10
-3 1 -32 6 -65 9 -33 4 -67 9 -75 11 -8 2 -46 7 -85 10 -38 4 -83 9 -100 10
-16 2 -79 6 -140 10 -60 4 -137 10 -170 12 -68 6 -4950 14 -4956 9z"/>
</g>
</svg>
