<svg id="Calque_1" data-name="Calque 1" xmlns="http://www.w3.org/2000/svg" viewBox="0 0 392.43 164.58"><defs><style>.cls-1,.cls-2,.cls-3{stroke:#000;stroke-width:6px;}.cls-1,.cls-2{stroke-miterlimit:10;}.cls-2{fill:none;}.cls-3{stroke-linecap:round;stroke-linejoin:round;}</style></defs><path class="cls-1" d="M28.43,121.75,36.52,73H65.73l-.85,5.23H41.56L38.8,94.72H59.93L59.07,100H37.94l-3.61,21.79Z" transform="translate(-18.57 -33.36)"/><path class="cls-1" d="M81.72,73l-8.09,48.72h-5.9L75.82,73Z" transform="translate(-18.57 -33.36)"/><path class="cls-1" d="M90,78.26,90.86,73H127.4l-.85,5.23H111.22L104,121.75h-5.9l7.23-43.49Z" transform="translate(-18.57 -33.36)"/><path class="cls-1" d="M147.29,121.75,155.38,73h16.47q5.7,0,9.05,1.92a9.83,9.83,0,0,1,4.54,5.31,15.19,15.19,0,0,1,.49,7.71,18.31,18.31,0,0,1-3,7.61,15.78,15.78,0,0,1-6.28,5.23,22.07,22.07,0,0,1-9.63,1.91H153.67l1-5.33h13.14a16,16,0,0,0,6.47-1.14,9.17,9.17,0,0,0,4-3.26,12.41,12.41,0,0,0,1.91-5,10.9,10.9,0,0,0-.25-5.13A5.93,5.93,0,0,0,177,79.46a13,13,0,0,0-6.15-1.2H160.43l-7.24,43.49Zm26.56-21.89,8.37,21.89h-6.85l-8.19-21.89Z" transform="translate(-18.57 -33.36)"/><path class="cls-1" d="M235.23,97.77a34,34,0,0,1-4.92,13.15,26.13,26.13,0,0,1-8.9,8.51,22.73,22.73,0,0,1-11.4,3,18.32,18.32,0,0,1-10.77-3.11,16.86,16.86,0,0,1-6.32-8.8,28.05,28.05,0,0,1-.61-13.5,33.88,33.88,0,0,1,4.92-13.15,26,26,0,0,1,8.93-8.52,22.89,22.89,0,0,1,11.46-3,18.12,18.12,0,0,1,10.7,3.1,16.91,16.91,0,0,1,6.3,8.81A28.18,28.18,0,0,1,235.23,97.77ZM229.62,97a22.66,22.66,0,0,0-.31-10.49,12,12,0,0,0-4.5-6.45,12.73,12.73,0,0,0-7.47-2.19,17.1,17.1,0,0,0-8.57,2.29,20.28,20.28,0,0,0-6.92,6.74,28.07,28.07,0,0,0-3.93,10.86,22.67,22.67,0,0,0,.31,10.49,12,12,0,0,0,4.5,6.45,12.71,12.71,0,0,0,7.47,2.19,17.14,17.14,0,0,0,8.57-2.3,20.15,20.15,0,0,0,6.92-6.73A28.07,28.07,0,0,0,229.62,97Z" transform="translate(-18.57 -33.36)"/><path class="cls-1" d="M240.84,121.75h-6.18l26-48.72h6.09l9.8,48.72h-6.18l-7.71-41h-.38Zm5.43-19H271.2l-.85,5.23H245.41Z" transform="translate(-18.57 -33.36)"/><path class="cls-1" d="M299.37,121.75H284.15L292.24,73h15.51q7.1,0,11.69,3a15.58,15.58,0,0,1,6.43,8.49,27.53,27.53,0,0,1,.53,13.18,32.71,32.71,0,0,1-4.79,12.91,24,24,0,0,1-9.19,8.28A28.13,28.13,0,0,1,299.37,121.75Zm-8.44-5.23h8.63A21.69,21.69,0,0,0,310,114.14a18.73,18.73,0,0,0,7.09-6.78,28.88,28.88,0,0,0,3.7-10.45,22.89,22.89,0,0,0-.18-10A11,11,0,0,0,316,80.51q-3.42-2.25-9.13-2.25h-9.63Z" transform="translate(-18.57 -33.36)"/><polyline class="cls-2" points="0 97.73 313.04 97.73 333.43 68.64 337.43 143.64 365.43 25.64 365.43 98.47 378.43 98.64"/><path class="cls-3" d="M391.06,131.92s6.84-2.3,9.94-2.92c5-1,7,1.15,7,3S396.12,131.85,391.06,131.92Z" transform="translate(-18.57 -33.36)"/></svg>