<svg width="32" height="33" viewBox="0 0 32 33" fill="none" xmlns="http://www.w3.org/2000/svg">
<path d="M16 5.356C19.7381 5.356 20.1809 5.37022 21.6571 5.43748C23.0221 5.49983 23.7634 5.72787 24.2568 5.91961C24.9102 6.17358 25.3766 6.47698 25.8665 6.96687C26.3565 7.45677 26.6598 7.92314 26.9138 8.57655C27.1055 9.06994 27.3335 9.81128 27.3959 11.1762C27.4632 12.6525 27.4774 13.0953 27.4774 16.8334C27.4774 20.5716 27.4632 21.0143 27.3959 22.4906C27.3335 23.8556 27.1055 24.5968 26.9138 25.0902C26.6598 25.7436 26.3564 26.2101 25.8665 26.7C25.3766 27.1899 24.9102 27.4933 24.2568 27.7471C23.7634 27.9389 23.0221 28.167 21.6571 28.2293C20.1811 28.2966 19.7383 28.3109 16 28.3109C12.2616 28.3109 11.8188 28.2966 10.3428 28.2293C8.9778 28.1669 8.23656 27.9389 7.74317 27.7471C7.08977 27.4933 6.62328 27.1899 6.13339 26.7C5.6435 26.21 5.34009 25.7436 5.08623 25.0902C4.8945 24.5969 4.66634 23.8556 4.60411 22.4906C4.53673 21.0143 4.52252 20.5716 4.52252 16.8334C4.52252 13.0953 4.53673 12.6525 4.60411 11.1763C4.66645 9.81128 4.8945 9.06994 5.08623 8.57655C5.34009 7.92314 5.6435 7.45677 6.13339 6.96687C6.62339 6.47687 7.08977 6.17358 7.74317 5.91961C8.23645 5.72787 8.9778 5.49983 10.3428 5.43748C11.819 5.37022 12.2618 5.356 16 5.356V5.356ZM16 2.83337C12.1978 2.83337 11.721 2.84945 10.2278 2.91759C8.73761 2.98562 7.71987 3.22231 6.82945 3.56837C5.90873 3.92614 5.12802 4.40487 4.3497 5.18319C3.57139 5.9615 3.09277 6.74222 2.735 7.66283C2.38883 8.55336 2.15225 9.57109 2.08422 11.0612C2.01608 12.5544 2 13.0312 2 16.8334C2 20.6356 2.01608 21.1123 2.08422 22.6055C2.15225 24.0958 2.38883 25.1135 2.735 26.0039C3.09266 26.9245 3.57139 27.7054 4.3497 28.4837C5.12802 29.262 5.90873 29.7406 6.82945 30.0984C7.71998 30.4446 8.73761 30.6811 10.2277 30.7492C11.721 30.8173 12.1978 30.8334 16 30.8334C19.8022 30.8334 20.279 30.8173 21.7722 30.7492C23.2623 30.6811 24.28 30.4446 25.1704 30.0984C26.0912 29.7407 26.8719 29.262 27.6502 28.4837C28.4285 27.7054 28.9072 26.9246 29.265 26.0039C29.6111 25.1134 29.8477 24.0958 29.9158 22.6056C29.9839 21.1123 30 20.6356 30 16.8334C30 13.0312 29.9839 12.5544 29.9158 11.0612C29.8477 9.57109 29.6111 8.55336 29.265 7.66294C28.9072 6.74222 28.4285 5.9615 27.6502 5.18319C26.8719 4.40487 26.0912 3.92603 25.1705 3.56837C24.28 3.22231 23.2623 2.98562 21.7722 2.91759C20.279 2.84945 19.8022 2.83337 16 2.83337ZM16 9.64416C12.0295 9.64416 8.81078 12.8631 8.81078 16.8334C8.81078 20.8039 12.0295 24.0226 16 24.0226C19.9704 24.0226 23.1892 20.8039 23.1892 16.8334C23.1892 12.863 19.9704 9.64416 16 9.64416V9.64416ZM16 21.5001C13.4227 21.5001 11.3333 19.4107 11.3333 16.8334C11.3333 14.2561 13.4227 12.1667 16 12.1667C18.5773 12.1667 20.6667 14.2561 20.6667 16.8334C20.6667 19.4107 18.5773 21.5001 16 21.5001ZM25.1532 9.36011C25.1532 10.288 24.4011 11.0401 23.4732 11.0401C22.5453 11.0401 21.7932 10.288 21.7932 9.36011C21.7932 8.43228 22.5453 7.68011 23.4732 7.68011C24.4011 7.68011 25.1532 8.43228 25.1532 9.36011V9.36011Z" fill="white"/>
</svg>
