<svg width="32" height="33" viewBox="0 0 32 33" fill="none" xmlns="http://www.w3.org/2000/svg">
<path d="M25.6989 2.16663H6.30101C4.66513 2.16663 3.33325 3.51593 3.33325 5.18798V25.0173C3.33325 26.6894 4.66503 28.0387 6.30091 28.0387H22.7169L21.9496 25.3253L23.8026 27.0706L25.5541 28.7133L28.6666 31.5V5.18798C28.6666 3.51593 27.3348 2.16663 25.6989 2.16663ZM20.1111 21.3214C20.1111 21.3214 19.59 20.6907 19.1557 20.1333C21.0521 19.5906 21.7759 18.388 21.7759 18.388C21.1824 18.784 20.6178 19.0627 20.1111 19.2532C19.3874 19.5613 18.6925 19.7666 18.0121 19.884C16.6224 20.148 15.3485 20.0747 14.2628 19.8693C13.4376 19.7079 12.7283 19.4733 12.1348 19.2387C11.8018 19.1066 11.4399 18.9453 11.0779 18.74C11.0346 18.7106 10.9911 18.696 10.9477 18.6666C10.9188 18.652 10.9043 18.6373 10.8898 18.6227C10.6293 18.476 10.4845 18.3733 10.4845 18.3733C10.4845 18.3733 11.1794 19.5467 13.0178 20.1039C12.5836 20.6614 12.0479 21.3213 12.0479 21.3213C8.8486 21.2186 7.63269 19.092 7.63269 19.092C7.63269 14.3693 9.71725 10.5413 9.71725 10.5413C11.8018 8.95727 13.785 9.00129 13.785 9.00129L13.9298 9.17735C11.3241 9.93983 10.1226 11.0986 10.1226 11.0986C10.1226 11.0986 10.441 10.9227 10.9766 10.6733C12.5256 9.98394 13.7561 9.79335 14.2628 9.74933C14.3496 9.73459 14.422 9.71996 14.5089 9.71996C15.479 9.59192 16.4607 9.58209 17.4331 9.69068C18.8083 9.852 20.2849 10.2627 21.7904 11.0986C21.7904 11.0986 20.6468 9.99868 18.1858 9.236L18.3885 9.00139C18.3885 9.00139 20.3717 8.95727 22.4563 10.5414C22.4563 10.5414 24.5409 14.3693 24.5409 19.092C24.5409 19.092 23.3104 21.2186 20.1111 21.3213V21.3214ZM13.3797 14.472C12.5546 14.472 11.9032 15.2053 11.9032 16.0999C11.9032 16.9947 12.569 17.728 13.3797 17.728C14.2049 17.728 14.8563 16.9947 14.8563 16.0999C14.8708 15.2053 14.2049 14.472 13.3798 14.472H13.3797ZM18.6636 14.472C17.8384 14.472 17.1869 15.2053 17.1869 16.0999C17.1869 16.9947 17.8529 17.728 18.6636 17.728C19.4887 17.728 20.14 16.9947 20.14 16.0999C20.14 15.2053 19.4887 14.472 18.6636 14.472Z" fill="white"/>
</svg>
