<svg width="32" height="33" viewBox="0 0 32 33" fill="none" xmlns="http://www.w3.org/2000/svg">
<path fill-rule="evenodd" clip-rule="evenodd" d="M30.6665 29.881C30.6665 30.7751 29.9415 31.5 29.0475 31.5L21.5725 31.5V20.1406H25.3855L25.9564 15.7137H21.5725V12.8871C21.5725 11.6054 21.9285 10.7319 23.7666 10.7319L26.1108 10.7309V6.7715C25.7052 6.71753 24.3137 6.59699 22.6949 6.59699C19.3149 6.59699 17.001 8.66005 17.001 12.4488V15.7137H13.1783V20.1406H17.001V31.5L2.95219 31.5C2.05787 31.5 1.33325 30.7751 1.33325 29.881V3.78557C1.33325 2.89136 2.05787 2.16663 2.95219 2.16663H29.0475C29.9415 2.16663 30.6665 2.89136 30.6665 3.78557V29.881Z" fill="white"/>
</svg>
