<svg width="32" height="33" viewBox="0 0 32 33" fill="none" xmlns="http://www.w3.org/2000/svg">
<path d="M30 7.52706C28.9697 7.98392 27.8626 8.29269 26.7006 8.43159C27.8868 7.72066 28.7975 6.59486 29.2264 5.25348C28.0988 5.92262 26.8651 6.39408 25.5786 6.64747C24.5307 5.53108 23.0378 4.83337 21.3855 4.83337C18.213 4.83337 15.6408 7.40544 15.6408 10.5777C15.6408 11.028 15.6917 11.4664 15.7896 11.887C11.0153 11.6473 6.78253 9.36041 3.94917 5.88491C3.4548 6.73333 3.17152 7.72022 3.17152 8.77284C3.17152 10.7659 4.18575 12.5241 5.72706 13.5543C4.81482 13.5257 3.92265 13.2793 3.12503 12.8357C3.1247 12.8597 3.1247 12.8838 3.1247 12.908C3.1247 15.6913 5.10483 18.0131 7.73267 18.5408C6.88675 18.7709 5.99944 18.8045 5.13852 18.6392C5.86947 20.9215 7.99102 22.5822 10.5047 22.6287C8.53866 24.1693 6.06164 25.0878 3.37036 25.0878C2.90661 25.0878 2.44942 25.0605 2 25.0075C4.5422 26.6374 7.56172 27.5884 10.8058 27.5884C21.3722 27.5884 27.1501 18.835 27.1501 11.244C27.1501 10.9948 27.1447 10.7471 27.1335 10.5007C28.2581 9.68775 29.2288 8.68077 30 7.52706" fill="white"/>
</svg>
