<svg id="Calque_1" data-name="Calque 1" xmlns="http://www.w3.org/2000/svg" viewBox="0 0 113.92 287.14"><defs><style>.cls-1{fill:#fff;}</style></defs><title>Pictogramme_bonhomme</title><path class="cls-1" d="M59.27,0S41.36,17.67,35.81,40.36c-3.45,14.14,3.24,32.86,5.7,42.4,0,0-37.72,44.45-41.22,85.82C-3.29,211,27.5,250.49,40.09,259.3c0,0-25-73.3-12.76-80.13,0,0,9.82,29.24,26.79,55.37,15.57,24,37.91,44.6,48.48,52.6,0,0-32-51.78-42.36-92-11.15-43.07-3.88-74.7,1.17-75.69,18.58-3.64,51.12,68.28,51.12,68.28s5.65-26.31-5.79-45.68c-13.25-22.42-28.56-38.84-33-46.17C68.6,87.43,39.55,47.14,59.27,0Z" transform="translate(0 0)"/><circle class="cls-1" cx="86.54" cy="74.7" r="13.09"/></svg>