<svg id="Calque_1" data-name="Calque 1" xmlns="http://www.w3.org/2000/svg" viewBox="0 0 236.47 298.82"><defs><style>.cls-1{fill:#1d1d1b;}</style></defs><path class="cls-1" d="M116.24,5.86S98.33,23.53,92.78,46.22c-3.45,14.14,3.24,32.86,5.7,42.4,0,0-37.72,44.45-41.22,85.82-3.58,42.42,27.21,81.91,39.8,90.72,0,0-25-73.3-12.76-80.13,0,0,9.82,29.24,26.79,55.37,15.57,24,37.9,44.63,48.48,52.56,0,0-32-51.78-42.36-92-11.15-43.07-3.88-74.7,1.17-75.69,18.58-3.64,51.12,68.28,51.12,68.28s5.65-26.31-5.79-45.68c-13.25-22.42-28.56-38.84-33-46.17C125.57,93.29,96.52,53,116.24,5.86Z"/><circle class="cls-1" cx="143.51" cy="80.56" r="13.09"/></svg>