<svg width="22" height="22" viewBox="0 0 22 22" fill="none" xmlns="http://www.w3.org/2000/svg">
<path d="M17.6563 2.83625C15.7647 1.3228 13.4141 0.498804 10.9916 0.500001C8.13596 0.500001 5.46877 1.60016 3.47471 3.59797C1.54768 5.5311 0.491582 8.08344 0.50002 10.783C0.500085 12.7622 1.08114 14.6978 2.17111 16.3498L2.18002 16.3625C2.19314 16.3817 2.20674 16.4009 2.22033 16.4197C2.23393 16.4384 2.2508 16.4628 2.25455 16.4689L2.26486 16.4877C2.31783 16.5814 2.35861 16.6958 2.32252 16.8111L1.45908 19.9358C1.42454 20.052 1.40562 20.1723 1.40283 20.2934C1.40221 20.6123 1.52803 20.9183 1.75272 21.1445C1.97741 21.3707 2.28262 21.4985 2.60143 21.5C2.76989 21.4944 2.93591 21.4581 3.09127 21.3927L6.25486 20.2508L6.29471 20.2353C6.38076 20.1992 6.47325 20.1808 6.56658 20.1814C6.65264 20.1816 6.73793 20.1975 6.8183 20.2283C6.89424 20.2578 7.58377 20.5217 8.31127 20.7252C8.91596 20.8939 10.1741 21.147 11.1599 21.147C13.956 21.147 16.5669 20.0642 18.5113 18.0973C20.4388 16.1455 21.5 13.5509 21.5 10.7886C21.5003 10.0795 21.4252 9.37242 21.276 8.67922C20.7913 6.40016 19.506 4.32453 17.6563 2.83625ZM6.50002 12.5C6.20335 12.5 5.91334 12.412 5.66666 12.2472C5.41999 12.0824 5.22773 11.8481 5.1142 11.574C5.00067 11.2999 4.97096 10.9983 5.02884 10.7074C5.08672 10.4164 5.22958 10.1491 5.43936 9.93934C5.64914 9.72956 5.91641 9.5867 6.20738 9.52882C6.49835 9.47095 6.79995 9.50065 7.07404 9.61418C7.34813 9.72771 7.5824 9.91997 7.74722 10.1666C7.91204 10.4133 8.00002 10.7033 8.00002 11C8.00002 11.3978 7.84198 11.7794 7.56068 12.0607C7.27937 12.342 6.89784 12.5 6.50002 12.5ZM11 12.5C10.7033 12.5 10.4133 12.412 10.1667 12.2472C9.91999 12.0824 9.72773 11.8481 9.6142 11.574C9.50067 11.2999 9.47096 10.9983 9.52884 10.7074C9.58672 10.4164 9.72958 10.1491 9.93936 9.93934C10.1491 9.72956 10.4164 9.5867 10.7074 9.52882C10.9984 9.47095 11.3 9.50065 11.574 9.61418C11.8481 9.72771 12.0824 9.91997 12.2472 10.1666C12.412 10.4133 12.5 10.7033 12.5 11C12.5 11.3978 12.342 11.7794 12.0607 12.0607C11.7794 12.342 11.3978 12.5 11 12.5V12.5ZM15.5 12.5C15.2033 12.5 14.9133 12.412 14.6667 12.2472C14.42 12.0824 14.2277 11.8481 14.1142 11.574C14.0007 11.2999 13.971 10.9983 14.0288 10.7074C14.0867 10.4164 14.2296 10.1491 14.4394 9.93934C14.6491 9.72956 14.9164 9.5867 15.2074 9.52882C15.4984 9.47095 15.8 9.50065 16.074 9.61418C16.3481 9.72771 16.5824 9.91997 16.7472 10.1666C16.912 10.4133 17 10.7033 17 11C17 11.3978 16.842 11.7794 16.5607 12.0607C16.2794 12.342 15.8978 12.5 15.5 12.5Z" fill="#1A1A1A"/>
</svg>
